<svg xlink="http://www.w3.org/1999/xlink" viewBox="0 0 5000 5000" xmlns="http://www.w3.org/2000/svg" style="transform: scale(1);"><defs><filter id="goo"><feGaussianBlur in="SourceGraphic" stdDeviation="0" result="blur"></feGaussianBlur><feColorMatrix in="blur" type="matrix" values="1 0 0 0 0 0 1 0 0 0 0 0 1 0 0 0 0 0 19 -9" result="good"></feColorMatrix><feComposite in="SourceGraphic" in2="goo" operator="atop"></feComposite></filter><path d="M297,315C266,334 229,333 203,315C175,291 165,255 174,225C188,191 218,170 250,170C286,173 316,195 326,225C335,261 322,296 297,315z" id="P0"></path><path d="M299,302C273,322 240,325 216,312C189,295 175,264 180,237C189,205 213,183 241,180C273,178 302,195 314,220C326,250 319,282 299,302z" id="P1"></path><path d="M250,309C223,307 201,290 194,268C187,242 197,216 215,202C238,188 266,189 285,202C305,220 313,246 306,268C296,293 273,309 250,309z" id="P2"></path><path d="M193,269C186,242 196,216 215,201C238,187 266,188 285,201C306,219 314,246 307,269C297,294 274,310 250,310C223,308 201,291 193,269z" id="P3"></path><path d="M180,273C171,240 183,208 207,190C235,172 270,173 293,190C319,212 329,245 320,273C308,304 279,324 250,324C216,322 189,300 180,273z" id="P4"></path></defs><rect id="RECT" width="5000" height="5000" fill="#230903"></rect><g id="group" fill="#F56476" filter=""><use x="-120" y="-2" href="#P4"></use><use x="-52" y="175" href="#P1"></use><use x="-38" y="580" href="#P3"></use><use x="-227" y="755" href="#P2"></use><use x="-203" y="992" href="#P0"></use><use x="-229" y="1412" href="#P4"></use><use x="-87" y="1826" href="#P0"></use><use x="-140" y="1987" href="#P3"></use><use x="32" y="2216" href="#P3"></use><use x="-136" y="2690" href="#P4"></use><use x="-172" y="2798" href="#P3"></use><use x="-206" y="3256" href="#P4"></use><use x="21" y="3621" href="#P1"></use><use x="-181" y="3929" href="#P4"></use><use x="-226" y="4230" href="#P3"></use><use x="-249" y="4422" href="#P2"></use><use x="-30" y="4807" href="#P2"></use><use x="-99" y="4963" href="#P4"></use><use x="-115" y="5358" href="#P4"></use><use x="120" y="-240" href="#P0"></use><use x="143" y="274" href="#P3"></use><use x="300" y="467" href="#P2"></use><use x="335" y="949" href="#P0"></use><use x="328" y="1221" href="#P0"></use><use x="102" y="1445" href="#P2"></use><use x="222" y="1795" href="#P0"></use><use x="269" y="2120" href="#P4"></use><use x="137" y="2211" href="#P3"></use><use x="137" y="2602" href="#P3"></use><use x="180" y="2956" href="#P2"></use><use x="325" y="3290" href="#P3"></use><use x="301" y="3662" href="#P0"></use><use x="215" y="3829" href="#P0"></use><use x="208" y="4250" href="#P4"></use><use x="89" y="4362" href="#P2"></use><use x="289" y="4714" href="#P2"></use><use x="307" y="5011" href="#P2"></use><use x="316" y="5240" href="#P2"></use><use x="563" y="-182" href="#P0"></use><use x="434" y="75" href="#P1"></use><use x="562" y="439" href="#P3"></use><use x="650" y="706" href="#P1"></use><use x="400" y="1243" href="#P3"></use><use x="503" y="1497" href="#P2"></use><use x="366" y="1845" href="#P2"></use><use x="516" y="2025" href="#P3"></use><use x="588" y="2350" href="#P2"></use><use x="427" y="2521" href="#P2"></use><use x="428" y="2917" href="#P4"></use><use x="478" y="3073" href="#P1"></use><use x="453" y="3640" href="#P3"></use><use x="635" y="3791" href="#P4"></use><use x="375" y="4252" href="#P3"></use><use x="434" y="4426" href="#P3"></use><use x="579" y="4658" href="#P2"></use><use x="575" y="5129" href="#P2"></use><use x="618" y="5319" href="#P3"></use><use x="844" y="-34" href="#P0"></use><use x="861" y="337" href="#P1"></use><use x="702" y="450" href="#P3"></use><use x="862" y="780" href="#P4"></use><use x="857" y="1221" href="#P4"></use><use x="892" y="1541" href="#P4"></use><use x="772" y="1706" href="#P2"></use><use x="937" y="1948" href="#P2"></use><use x="851" y="2330" href="#P1"></use><use x="965" y="2733" href="#P2"></use><use x="944" y="3012" href="#P1"></use><use x="893" y="3140" href="#P2"></use><use x="829" y="3657" href="#P3"></use><use x="847" y="3725" href="#P3"></use><use x="942" y="4265" href="#P1"></use><use x="823" y="4515" href="#P3"></use><use x="712" y="4594" href="#P4"></use><use x="694" y="5036" href="#P3"></use><use x="697" y="5228" href="#P4"></use><use x="1073" y="-206" href="#P0"></use><use x="1001" y="329" href="#P4"></use><use x="1245" y="449" href="#P2"></use><use x="1038" y="655" href="#P1"></use><use x="975" y="965" href="#P3"></use><use x="1191" y="1279" href="#P0"></use><use x="1040" y="1665" href="#P3"></use><use x="1248" y="1882" href="#P2"></use><use x="1249" y="2430" href="#P2"></use><use x="1160" y="2714" href="#P0"></use><use x="1123" y="3033" href="#P3"></use><use x="1138" y="3246" href="#P4"></use><use x="995" y="3528" href="#P3"></use><use x="998" y="3686" href="#P0"></use><use x="1177" y="3984" href="#P1"></use><use x="1005" y="4338" href="#P2"></use><use x="1161" y="4825" href="#P4"></use><use x="1143" y="5039" href="#P1"></use><use x="1136" y="5323" href="#P4"></use><use x="1320" y="-204" href="#P4"></use><use x="1494" y="183" href="#P3"></use><use x="1370" y="630" href="#P2"></use><use x="1561" y="870" href="#P1"></use><use x="1464" y="967" href="#P0"></use><use x="1281" y="1381" href="#P4"></use><use x="1389" y="1659" href="#P4"></use><use x="1343" y="1888" href="#P1"></use><use x="1406" y="2407" href="#P1"></use><use x="1583" y="2682" href="#P0"></use><use x="1579" y="2869" href="#P1"></use><use x="1302" y="3355" href="#P2"></use><use x="1288" y="3552" href="#P2"></use><use x="1538" y="3880" href="#P4"></use><use x="1383" y="4124" href="#P0"></use><use x="1428" y="4363" href="#P4"></use><use x="1374" y="4665" href="#P2"></use><use x="1311" y="4998" href="#P0"></use><use x="1442" y="5287" href="#P0"></use><use x="1676" y="1" href="#P3"></use><use x="1776" y="333" href="#P3"></use><use x="1724" y="480" href="#P4"></use><use x="1725" y="751" href="#P3"></use><use x="1599" y="1231" href="#P0"></use><use x="1774" y="1442" href="#P1"></use><use x="1712" y="1563" href="#P1"></use><use x="1830" y="1910" href="#P1"></use><use x="1640" y="2206" href="#P2"></use><use x="1860" y="2482" href="#P0"></use><use x="1610" y="3067" href="#P4"></use><use x="1885" y="3284" href="#P4"></use><use x="1688" y="3482" href="#P2"></use><use x="1821" y="3956" href="#P4"></use><use x="1786" y="4248" href="#P3"></use><use x="1631" y="4556" href="#P0"></use><use x="1645" y="4583" href="#P3"></use><use x="1745" y="4964" href="#P3"></use><use x="1701" y="5317" href="#P3"></use><use x="2147" y="-136" href="#P1"></use><use x="2191" y="78" href="#P0"></use><use x="1971" y="355" href="#P1"></use><use x="1945" y="790" href="#P1"></use><use x="1989" y="1213" href="#P3"></use><use x="2177" y="1286" href="#P4"></use><use x="2007" y="1845" href="#P3"></use><use x="2095" y="2156" href="#P4"></use><use x="1899" y="2301" href="#P1"></use><use x="2151" y="2689" href="#P1"></use><use x="2188" y="2866" href="#P2"></use><use x="2063" y="3085" href="#P2"></use><use x="2159" y="3589" href="#P3"></use><use x="2009" y="3914" href="#P4"></use><use x="2127" y="4261" href="#P4"></use><use x="1963" y="4473" href="#P1"></use><use x="2091" y="4806" href="#P0"></use><use x="1901" y="4922" href="#P4"></use><use x="2073" y="5303" href="#P1"></use><use x="2336" y="-36" href="#P4"></use><use x="2417" y="312" href="#P3"></use><use x="2256" y="540" href="#P2"></use><use x="2375" y="866" href="#P4"></use><use x="2329" y="1053" href="#P3"></use><use x="2267" y="1289" href="#P2"></use><use x="2349" y="1808" href="#P1"></use><use x="2218" y="1930" href="#P3"></use><use x="2425" y="2184" href="#P4"></use><use x="2242" y="2751" href="#P1"></use><use x="2461" y="2863" href="#P4"></use><use x="2289" y="3096" href="#P1"></use><use x="2219" y="3408" href="#P0"></use><use x="2375" y="3922" href="#P3"></use><use x="2297" y="4172" href="#P0"></use><use x="2307" y="4540" href="#P2"></use><use x="2262" y="4723" href="#P2"></use><use x="2287" y="4906" href="#P4"></use><use x="2474" y="5298" href="#P4"></use><use x="2696" y="-45" href="#P2"></use><use x="2631" y="137" href="#P1"></use><use x="2548" y="638" href="#P0"></use><use x="2503" y="809" href="#P0"></use><use x="2690" y="967" href="#P2"></use><use x="2606" y="1292" href="#P3"></use><use x="2687" y="1786" href="#P0"></use><use x="2596" y="2035" href="#P3"></use><use x="2564" y="2282" href="#P1"></use><use x="2722" y="2553" href="#P4"></use><use x="2568" y="2841" href="#P4"></use><use x="2760" y="3155" href="#P4"></use><use x="2567" y="3534" href="#P1"></use><use x="2681" y="3802" href="#P4"></use><use x="2581" y="3995" href="#P2"></use><use x="2520" y="4389" href="#P4"></use><use x="2623" y="4642" href="#P4"></use><use x="2500" y="4922" href="#P1"></use><use x="2742" y="5206" href="#P3"></use><use x="2952" y="-46" href="#P2"></use><use x="2887" y="207" href="#P1"></use><use x="2816" y="644" href="#P4"></use><use x="2910" y="863" href="#P2"></use><use x="3012" y="959" href="#P0"></use><use x="2877" y="1267" href="#P3"></use><use x="3064" y="1612" href="#P3"></use><use x="2826" y="1885" href="#P2"></use><use x="2941" y="2383" href="#P3"></use><use x="3021" y="2645" href="#P1"></use><use x="2961" y="2883" href="#P0"></use><use x="3032" y="3324" href="#P3"></use><use x="2836" y="3400" href="#P2"></use><use x="3034" y="3727" href="#P2"></use><use x="3062" y="4158" href="#P3"></use><use x="2807" y="4434" href="#P1"></use><use x="2992" y="4797" href="#P2"></use><use x="2954" y="4888" href="#P0"></use><use x="2874" y="5192" href="#P0"></use><use x="3380" y="-235" href="#P1"></use><use x="3189" y="238" href="#P0"></use><use x="3368" y="591" href="#P4"></use><use x="3342" y="851" href="#P2"></use><use x="3320" y="1079" href="#P3"></use><use x="3317" y="1337" href="#P1"></use><use x="3331" y="1612" href="#P0"></use><use x="3396" y="1889" href="#P3"></use><use x="3380" y="2268" href="#P4"></use><use x="3269" y="2604" href="#P3"></use><use x="3341" y="2771" href="#P3"></use><use x="3365" y="3068" href="#P4"></use><use x="3404" y="3551" href="#P0"></use><use x="3135" y="3809" href="#P2"></use><use x="3339" y="4130" href="#P0"></use><use x="3149" y="4424" href="#P4"></use><use x="3146" y="4615" href="#P1"></use><use x="3268" y="4923" href="#P2"></use><use x="3138" y="5215" href="#P0"></use><use x="3539" y="-135" href="#P3"></use><use x="3612" y="53" href="#P0"></use><use x="3722" y="541" href="#P2"></use><use x="3582" y="841" href="#P3"></use><use x="3693" y="1169" href="#P4"></use><use x="3552" y="1519" href="#P3"></use><use x="3430" y="1738" href="#P1"></use><use x="3458" y="2156" href="#P3"></use><use x="3620" y="2175" href="#P0"></use><use x="3453" y="2677" href="#P2"></use><use x="3551" y="2851" href="#P4"></use><use x="3508" y="3362" href="#P3"></use><use x="3652" y="3516" href="#P2"></use><use x="3433" y="3944" href="#P4"></use><use x="3467" y="4030" href="#P3"></use><use x="3567" y="4288" href="#P2"></use><use x="3508" y="4616" href="#P4"></use><use x="3452" y="4913" href="#P1"></use><use x="3509" y="5347" href="#P2"></use><use x="3887" y="-100" href="#P3"></use><use x="3755" y="94" href="#P0"></use><use x="3950" y="633" href="#P2"></use><use x="3903" y="654" href="#P4"></use><use x="3959" y="1204" href="#P4"></use><use x="3832" y="1384" href="#P3"></use><use x="3939" y="1653" href="#P2"></use><use x="3730" y="1996" href="#P0"></use><use x="3786" y="2229" href="#P2"></use><use x="3889" y="2605" href="#P0"></use><use x="3756" y="2917" href="#P1"></use><use x="3902" y="3253" href="#P1"></use><use x="3998" y="3532" href="#P0"></use><use x="3915" y="3842" href="#P2"></use><use x="3856" y="4158" href="#P0"></use><use x="3724" y="4567" href="#P3"></use><use x="3905" y="4797" href="#P1"></use><use x="3865" y="4955" href="#P1"></use><use x="3737" y="5265" href="#P0"></use><use x="4177" y="-162" href="#P0"></use><use x="4138" y="308" href="#P1"></use><use x="4212" y="405" href="#P2"></use><use x="4098" y="903" href="#P1"></use><use x="4103" y="1028" href="#P4"></use><use x="4142" y="1512" href="#P4"></use><use x="4204" y="1713" href="#P4"></use><use x="4258" y="1868" href="#P3"></use><use x="4143" y="2199" href="#P4"></use><use x="4057" y="2585" href="#P1"></use><use x="4153" y="3028" href="#P2"></use><use x="4146" y="3149" href="#P1"></use><use x="4141" y="3520" href="#P1"></use><use x="4046" y="3904" href="#P4"></use><use x="4293" y="4049" href="#P4"></use><use x="4247" y="4564" href="#P1"></use><use x="4238" y="4594" href="#P2"></use><use x="4204" y="5102" href="#P4"></use><use x="4320" y="5272" href="#P2"></use><use x="4526" y="-50" href="#P2"></use><use x="4498" y="80" href="#P3"></use><use x="4559" y="463" href="#P3"></use><use x="4414" y="898" href="#P2"></use><use x="4635" y="1099" href="#P4"></use><use x="4583" y="1310" href="#P2"></use><use x="4531" y="1679" href="#P2"></use><use x="4356" y="2141" href="#P0"></use><use x="4619" y="2428" href="#P4"></use><use x="4447" y="2655" href="#P2"></use><use x="4624" y="2847" href="#P1"></use><use x="4361" y="3186" href="#P4"></use><use x="4563" y="3373" href="#P1"></use><use x="4536" y="3760" href="#P3"></use><use x="4616" y="4189" href="#P1"></use><use x="4592" y="4304" href="#P1"></use><use x="4335" y="4615" href="#P0"></use><use x="4623" y="4936" href="#P4"></use><use x="4487" y="5214" href="#P3"></use><use x="4700" y="51" href="#P3"></use><use x="4943" y="279" href="#P2"></use><use x="4858" y="649" href="#P1"></use><use x="4830" y="874" href="#P2"></use><use x="4928" y="1087" href="#P4"></use><use x="4908" y="1444" href="#P4"></use><use x="4650" y="1837" href="#P2"></use><use x="4754" y="1944" href="#P1"></use><use x="4811" y="2457" href="#P4"></use><use x="4837" y="2713" href="#P0"></use><use x="4940" y="2912" href="#P0"></use><use x="4644" y="3164" href="#P4"></use><use x="4743" y="3466" href="#P0"></use><use x="4727" y="3744" href="#P3"></use><use x="4701" y="4193" href="#P3"></use><use x="4858" y="4492" href="#P2"></use><use x="4918" y="4681" href="#P2"></use><use x="4886" y="5159" href="#P3"></use><use x="4846" y="5286" href="#P4"></use><use x="5043" y="-10" href="#P4"></use><use x="5201" y="243" href="#P1"></use><use x="5143" y="473" href="#P3"></use><use x="4971" y="900" href="#P1"></use><use x="5129" y="979" href="#P3"></use><use x="5200" y="1551" href="#P1"></use><use x="5015" y="1698" href="#P0"></use><use x="5017" y="2148" href="#P1"></use><use x="5018" y="2203" href="#P4"></use><use x="5038" y="2740" href="#P3"></use><use x="5093" y="2862" href="#P3"></use><use x="4971" y="3282" href="#P2"></use><use x="5203" y="3376" href="#P3"></use><use x="5068" y="3793" href="#P4"></use><use x="5238" y="4035" href="#P4"></use><use x="4993" y="4476" href="#P4"></use><use x="5067" y="4755" href="#P2"></use><use x="4954" y="5064" href="#P4"></use><use x="5215" y="5471" href="#P1"></use></g></svg>